<svg width="475" height="108" viewBox="0 0 475 108" fill="none" xmlns="http://www.w3.org/2000/svg">
<path d="M40.9006 5.1545V18H39.5977V7.7236L34.5513 16.3668H33.909L28.8625 7.77865V18H27.5596V5.1545H28.679L34.2576 14.6785L39.7812 5.1545H40.9006ZM54.1329 13.5775H46.0586C46.132 14.5806 46.5174 15.3942 47.2147 16.0181C47.912 16.6298 48.7928 16.9357 49.8572 16.9357C50.4566 16.9357 51.0072 16.8317 51.5088 16.6237C52.0103 16.4035 52.4446 16.0854 52.8117 15.6695L53.5457 16.5136C53.1175 17.0274 52.5792 17.4189 51.9308 17.688C51.2947 17.9572 50.5912 18.0918 49.8205 18.0918C48.8295 18.0918 47.9487 17.8838 47.178 17.4678C46.4195 17.0396 45.8261 16.4524 45.398 15.7062C44.9698 14.9599 44.7557 14.1158 44.7557 13.1738C44.7557 12.2318 44.9575 11.3876 45.3613 10.6414C45.7772 9.8951 46.34 9.31399 47.0495 8.89804C47.7713 8.48209 48.5788 8.27412 49.4718 8.27412C50.3649 8.27412 51.1662 8.48209 51.8758 8.89804C52.5853 9.31399 53.142 9.8951 53.5457 10.6414C53.9494 11.3754 54.1513 12.2195 54.1513 13.1738L54.1329 13.5775ZM49.4718 9.39351C48.5421 9.39351 47.7591 9.69324 47.1229 10.2927C46.499 10.8799 46.1442 11.6507 46.0586 12.6049H52.9034C52.8178 11.6507 52.4569 10.8799 51.8207 10.2927C51.1968 9.69324 50.4138 9.39351 49.4718 9.39351Z" fill="#8A898E"/>
<path d="M1 50.9407C1 37.2095 12.1314 26.0781 25.8626 26.0781V26.0781V62.0635H1V50.9407Z" fill="#06AA5C" stroke="#06AA5C" stroke-width="1.01948"/>
<rect x="1" y="62.0635" width="24.8626" height="8.73077" fill="#06AA5C" stroke="#06AA5C" stroke-width="1.01948"/>
<path d="M1 81.9167C1 95.6479 12.1314 106.779 25.8626 106.779V106.779V70.794H1V81.9167Z" fill="#06AA5C" stroke="#06AA5C" stroke-width="1.01948"/>
<rect x="25.8625" y="26.0781" width="411.828" height="80.7014" fill="#06AA5C"/>
<rect x="25.8625" y="26.0781" width="411.828" height="80.7014" stroke="#06AA5C" stroke-width="1.01948"/>
<path d="M31.9025 45.5887H33.6426L27.0425 64.4287H25.3025L31.9025 45.5887ZM36.4061 62.5487C35.5395 62.5487 34.7061 62.4354 33.9061 62.2087C33.1061 61.9687 32.4795 61.6687 32.0261 61.3087L32.8261 59.7887C33.2928 60.122 33.8595 60.3887 34.5261 60.5887C35.1928 60.7887 35.8661 60.8887 36.5461 60.8887C38.2261 60.8887 39.0661 60.4087 39.0661 59.4487C39.0661 59.1287 38.9528 58.8754 38.7261 58.6887C38.4995 58.502 38.2128 58.3687 37.8661 58.2887C37.5328 58.1954 37.0528 58.0954 36.4261 57.9887C35.5728 57.8554 34.8728 57.702 34.3261 57.5287C33.7928 57.3554 33.3328 57.062 32.9461 56.6487C32.5595 56.2354 32.3661 55.6554 32.3661 54.9087C32.3661 53.9487 32.7661 53.182 33.5661 52.6087C34.3661 52.022 35.4395 51.7287 36.7861 51.7287C37.4928 51.7287 38.1995 51.8154 38.9061 51.9887C39.6128 52.162 40.1928 52.3954 40.6461 52.6887L39.8261 54.2087C38.9595 53.6487 37.9395 53.3687 36.7661 53.3687C35.9528 53.3687 35.3328 53.502 34.9061 53.7687C34.4795 54.0354 34.2661 54.3887 34.2661 54.8287C34.2661 55.1754 34.3861 55.4487 34.6261 55.6487C34.8661 55.8487 35.1595 55.9954 35.5061 56.0887C35.8661 56.182 36.3661 56.2887 37.0061 56.4087C37.8595 56.5554 38.5461 56.7154 39.0661 56.8887C39.5995 57.0487 40.0528 57.3287 40.4261 57.7287C40.7995 58.1287 40.9861 58.6887 40.9861 59.4087C40.9861 60.3687 40.5728 61.1354 39.7461 61.7087C38.9328 62.2687 37.8195 62.5487 36.4061 62.5487ZM48.0057 62.5487C46.9257 62.5487 45.959 62.3154 45.1057 61.8487C44.2657 61.382 43.6057 60.742 43.1257 59.9287C42.6457 59.102 42.4057 58.1687 42.4057 57.1287C42.4057 56.0887 42.6457 55.162 43.1257 54.3487C43.6057 53.522 44.2657 52.882 45.1057 52.4287C45.959 51.962 46.9257 51.7287 48.0057 51.7287C48.9657 51.7287 49.819 51.922 50.5657 52.3087C51.3257 52.6954 51.9123 53.2554 52.3257 53.9887L50.8657 54.9287C50.5323 54.422 50.119 54.042 49.6257 53.7887C49.1323 53.5354 48.5857 53.4087 47.9857 53.4087C47.2923 53.4087 46.6657 53.562 46.1057 53.8687C45.559 54.1754 45.1257 54.6154 44.8057 55.1887C44.499 55.7487 44.3457 56.3954 44.3457 57.1287C44.3457 57.8754 44.499 58.5354 44.8057 59.1087C45.1257 59.6687 45.559 60.102 46.1057 60.4087C46.6657 60.7154 47.2923 60.8687 47.9857 60.8687C48.5857 60.8687 49.1323 60.742 49.6257 60.4887C50.119 60.2354 50.5323 59.8554 50.8657 59.3487L52.3257 60.2687C51.9123 61.002 51.3257 61.5687 50.5657 61.9687C49.819 62.3554 48.9657 62.5487 48.0057 62.5487ZM60.3347 51.7287C61.6814 51.7287 62.7481 52.122 63.5347 52.9087C64.3347 53.682 64.7347 54.822 64.7347 56.3287V62.4287H62.8147V56.5487C62.8147 55.522 62.5681 54.7487 62.0747 54.2287C61.5814 53.7087 60.8747 53.4487 59.9547 53.4487C58.9147 53.4487 58.0947 53.7554 57.4947 54.3687C56.8947 54.9687 56.5947 55.8354 56.5947 56.9687V62.4287H54.6747V47.5887H56.5947V53.3287C56.9947 52.822 57.5147 52.4287 58.1547 52.1487C58.8081 51.8687 59.5347 51.7287 60.3347 51.7287ZM77.9266 57.1887C77.9266 57.3354 77.9133 57.5287 77.8866 57.7687H69.2866C69.4066 58.702 69.8133 59.4554 70.5066 60.0287C71.2133 60.5887 72.0866 60.8687 73.1266 60.8687C74.3933 60.8687 75.4133 60.442 76.1866 59.5887L77.2466 60.8287C76.7666 61.3887 76.1666 61.8154 75.4466 62.1087C74.7399 62.402 73.9466 62.5487 73.0666 62.5487C71.9466 62.5487 70.9533 62.322 70.0866 61.8687C69.2199 61.402 68.5466 60.7554 68.0666 59.9287C67.5999 59.102 67.3666 58.1687 67.3666 57.1287C67.3666 56.102 67.5933 55.1754 68.0466 54.3487C68.5133 53.522 69.1466 52.882 69.9466 52.4287C70.7599 51.962 71.6733 51.7287 72.6866 51.7287C73.6999 51.7287 74.5999 51.962 75.3866 52.4287C76.1866 52.882 76.8066 53.522 77.2466 54.3487C77.7 55.1754 77.9266 56.122 77.9266 57.1887ZM72.6866 53.3487C71.7666 53.3487 70.9933 53.6287 70.3666 54.1887C69.7533 54.7487 69.3933 55.482 69.2866 56.3887H76.0866C75.9799 55.4954 75.6133 54.7687 74.9866 54.2087C74.3733 53.6354 73.6066 53.3487 72.6866 53.3487ZM90.5927 47.5887V62.4287H88.7527V60.7487C88.326 61.3354 87.786 61.782 87.1327 62.0887C86.4794 62.3954 85.7594 62.5487 84.9727 62.5487C83.946 62.5487 83.026 62.322 82.2127 61.8687C81.3994 61.4154 80.7594 60.782 80.2927 59.9687C79.8394 59.142 79.6127 58.1954 79.6127 57.1287C79.6127 56.062 79.8394 55.122 80.2927 54.3087C80.7594 53.4954 81.3994 52.862 82.2127 52.4087C83.026 51.9554 83.946 51.7287 84.9727 51.7287C85.7327 51.7287 86.4327 51.8754 87.0727 52.1687C87.7127 52.4487 88.246 52.8687 88.6727 53.4287V47.5887H90.5927ZM85.1327 60.8687C85.7994 60.8687 86.406 60.7154 86.9527 60.4087C87.4994 60.0887 87.926 59.6487 88.2327 59.0887C88.5394 58.5154 88.6927 57.862 88.6927 57.1287C88.6927 56.3954 88.5394 55.7487 88.2327 55.1887C87.926 54.6154 87.4994 54.1754 86.9527 53.8687C86.406 53.562 85.7994 53.4087 85.1327 53.4087C84.4527 53.4087 83.8394 53.562 83.2927 53.8687C82.7594 54.1754 82.3327 54.6154 82.0127 55.1887C81.706 55.7487 81.5527 56.3954 81.5527 57.1287C81.5527 57.862 81.706 58.5154 82.0127 59.0887C82.3327 59.6487 82.7594 60.0887 83.2927 60.4087C83.8394 60.7154 84.4527 60.8687 85.1327 60.8687ZM104.106 51.8287V62.4287H102.286V60.8287C101.899 61.3754 101.386 61.802 100.746 62.1087C100.119 62.402 99.4322 62.5487 98.6855 62.5487C97.2722 62.5487 96.1589 62.162 95.3455 61.3887C94.5322 60.602 94.1255 59.4487 94.1255 57.9287V51.8287H96.0455V57.7087C96.0455 58.7354 96.2922 59.5154 96.7855 60.0487C97.2789 60.5687 97.9855 60.8287 98.9055 60.8287C99.9189 60.8287 100.719 60.522 101.306 59.9087C101.892 59.2954 102.186 58.4287 102.186 57.3087V51.8287H104.106ZM107.761 47.5887H109.681V62.4287H107.761V47.5887ZM122.927 57.1887C122.927 57.3354 122.913 57.5287 122.887 57.7687H114.287C114.407 58.702 114.813 59.4554 115.507 60.0287C116.213 60.5887 117.087 60.8687 118.127 60.8687C119.393 60.8687 120.413 60.442 121.187 59.5887L122.247 60.8287C121.767 61.3887 121.167 61.8154 120.447 62.1087C119.74 62.402 118.947 62.5487 118.067 62.5487C116.947 62.5487 115.953 62.322 115.087 61.8687C114.22 61.402 113.547 60.7554 113.067 59.9287C112.6 59.102 112.367 58.1687 112.367 57.1287C112.367 56.102 112.593 55.1754 113.047 54.3487C113.513 53.522 114.147 52.882 114.947 52.4287C115.76 51.962 116.673 51.7287 117.687 51.7287C118.7 51.7287 119.6 51.962 120.387 52.4287C121.187 52.882 121.807 53.522 122.247 54.3487C122.7 55.1754 122.927 56.122 122.927 57.1887ZM117.687 53.3487C116.767 53.3487 115.993 53.6287 115.367 54.1887C114.753 54.7487 114.393 55.482 114.287 56.3887H121.087C120.98 55.4954 120.613 54.7687 119.987 54.2087C119.373 53.6354 118.607 53.3487 117.687 53.3487ZM139.444 56.2287H135.804V59.8087H134.124V56.2287H130.484V54.6487H134.124V51.0487H135.804V54.6487H139.444V56.2287ZM151.749 48.4287V49.7887L146.089 62.4287H143.969L149.509 50.1687H143.109V52.6687H141.189V48.4287H151.749ZM158.042 48.2687C159.922 48.2687 161.369 48.8754 162.382 50.0887C163.409 51.302 163.922 53.022 163.922 55.2487C163.922 56.8087 163.642 58.142 163.082 59.2487C162.536 60.342 161.762 61.1754 160.762 61.7487C159.776 62.3087 158.622 62.5887 157.302 62.5887C156.622 62.5887 155.982 62.522 155.382 62.3887C154.782 62.242 154.262 62.0354 153.822 61.7687L154.582 60.2087C155.262 60.6487 156.162 60.8687 157.282 60.8687C158.736 60.8687 159.869 60.422 160.682 59.5287C161.509 58.622 161.922 57.3087 161.922 55.5887V55.0887C161.522 55.6887 160.969 56.1487 160.262 56.4687C159.556 56.7754 158.762 56.9287 157.882 56.9287C156.962 56.9287 156.136 56.7554 155.402 56.4087C154.682 56.062 154.116 55.5687 153.702 54.9287C153.302 54.2754 153.102 53.5287 153.102 52.6887C153.102 51.8087 153.316 51.0354 153.742 50.3687C154.182 49.702 154.776 49.1887 155.522 48.8287C156.269 48.4554 157.109 48.2687 158.042 48.2687ZM158.222 55.3087C158.849 55.3087 159.409 55.1887 159.902 54.9487C160.396 54.7087 160.776 54.382 161.042 53.9687C161.322 53.5554 161.462 53.0954 161.462 52.5887C161.462 52.0954 161.329 51.6487 161.062 51.2487C160.809 50.8354 160.429 50.5087 159.922 50.2687C159.429 50.0154 158.829 49.8887 158.122 49.8887C157.202 49.8887 156.456 50.1354 155.882 50.6287C155.322 51.122 155.042 51.782 155.042 52.6087C155.042 53.4354 155.329 54.0954 155.902 54.5887C156.476 55.0687 157.249 55.3087 158.222 55.3087ZM170.386 48.2687C172.266 48.2687 173.713 48.8754 174.726 50.0887C175.753 51.302 176.266 53.022 176.266 55.2487C176.266 56.8087 175.986 58.142 175.426 59.2487C174.879 60.342 174.106 61.1754 173.106 61.7487C172.119 62.3087 170.966 62.5887 169.646 62.5887C168.966 62.5887 168.326 62.522 167.726 62.3887C167.126 62.242 166.606 62.0354 166.166 61.7687L166.926 60.2087C167.606 60.6487 168.506 60.8687 169.626 60.8687C171.079 60.8687 172.213 60.422 173.026 59.5287C173.853 58.622 174.266 57.3087 174.266 55.5887V55.0887C173.866 55.6887 173.313 56.1487 172.606 56.4687C171.899 56.7754 171.106 56.9287 170.226 56.9287C169.306 56.9287 168.479 56.7554 167.746 56.4087C167.026 56.062 166.459 55.5687 166.046 54.9287C165.646 54.2754 165.446 53.5287 165.446 52.6887C165.446 51.8087 165.659 51.0354 166.086 50.3687C166.526 49.702 167.119 49.1887 167.866 48.8287C168.613 48.4554 169.453 48.2687 170.386 48.2687ZM170.566 55.3087C171.193 55.3087 171.753 55.1887 172.246 54.9487C172.739 54.7087 173.119 54.382 173.386 53.9687C173.666 53.5554 173.806 53.0954 173.806 52.5887C173.806 52.0954 173.673 51.6487 173.406 51.2487C173.153 50.8354 172.773 50.5087 172.266 50.2687C171.773 50.0154 171.173 49.8887 170.466 49.8887C169.546 49.8887 168.799 50.1354 168.226 50.6287C167.666 51.122 167.386 51.782 167.386 52.6087C167.386 53.4354 167.673 54.0954 168.246 54.5887C168.819 55.0687 169.593 55.3087 170.566 55.3087ZM186.75 55.0887C187.55 55.3954 188.163 55.8354 188.59 56.4087C189.016 56.982 189.23 57.6687 189.23 58.4687C189.23 59.3087 189.003 60.042 188.55 60.6687C188.096 61.282 187.45 61.7554 186.61 62.0887C185.77 62.422 184.783 62.5887 183.65 62.5887C182.53 62.5887 181.55 62.422 180.71 62.0887C179.883 61.7554 179.243 61.282 178.79 60.6687C178.336 60.042 178.11 59.3087 178.11 58.4687C178.11 57.6687 178.316 56.982 178.73 56.4087C179.156 55.8354 179.77 55.3954 180.57 55.0887C179.93 54.782 179.443 54.3754 179.11 53.8687C178.776 53.362 178.61 52.762 178.61 52.0687C178.61 51.2954 178.816 50.622 179.23 50.0487C179.656 49.4754 180.25 49.0354 181.01 48.7287C181.77 48.422 182.65 48.2687 183.65 48.2687C184.663 48.2687 185.55 48.422 186.31 48.7287C187.083 49.0354 187.676 49.4754 188.09 50.0487C188.516 50.622 188.73 51.2954 188.73 52.0687C188.73 52.7487 188.556 53.3487 188.21 53.8687C187.876 54.3754 187.39 54.782 186.75 55.0887ZM183.65 49.8887C182.703 49.8887 181.956 50.0954 181.41 50.5087C180.863 50.9087 180.59 51.4554 180.59 52.1487C180.59 52.842 180.856 53.3887 181.39 53.7887C181.936 54.1887 182.69 54.3887 183.65 54.3887C184.623 54.3887 185.383 54.1887 185.93 53.7887C186.49 53.3887 186.77 52.842 186.77 52.1487C186.77 51.4554 186.483 50.9087 185.91 50.5087C185.35 50.0954 184.596 49.8887 183.65 49.8887ZM183.65 60.9687C184.756 60.9687 185.63 60.742 186.27 60.2887C186.91 59.822 187.23 59.1954 187.23 58.4087C187.23 57.6354 186.91 57.0287 186.27 56.5887C185.63 56.1354 184.756 55.9087 183.65 55.9087C182.543 55.9087 181.676 56.1354 181.05 56.5887C180.423 57.0287 180.11 57.6354 180.11 58.4087C180.11 59.1954 180.423 59.822 181.05 60.2887C181.676 60.742 182.543 60.9687 183.65 60.9687ZM201.261 48.4287V49.7887L195.601 62.4287H193.481L199.021 50.1687H192.621V52.6687H190.701V48.4287H201.261ZM208.663 53.9287C209.583 53.9287 210.403 54.102 211.123 54.4487C211.857 54.7954 212.43 55.2954 212.843 55.9487C213.257 56.5887 213.463 57.3287 213.463 58.1687C213.463 59.0487 213.243 59.822 212.803 60.4887C212.377 61.1554 211.783 61.6754 211.023 62.0487C210.277 62.4087 209.437 62.5887 208.503 62.5887C206.623 62.5887 205.17 61.982 204.143 60.7687C203.13 59.5554 202.623 57.8354 202.623 55.6087C202.623 54.0487 202.897 52.722 203.443 51.6287C204.003 50.522 204.777 49.6887 205.763 49.1287C206.763 48.5554 207.923 48.2687 209.243 48.2687C209.923 48.2687 210.563 48.342 211.163 48.4887C211.763 48.622 212.283 48.822 212.723 49.0887L211.963 50.6487C211.297 50.2087 210.403 49.9887 209.283 49.9887C207.83 49.9887 206.69 50.442 205.863 51.3487C205.037 52.242 204.623 53.5487 204.623 55.2687C204.623 55.482 204.63 55.6487 204.643 55.7687C205.043 55.1687 205.59 54.7154 206.283 54.4087C206.99 54.0887 207.783 53.9287 208.663 53.9287ZM208.423 60.9687C209.343 60.9687 210.09 60.722 210.663 60.2287C211.237 59.7354 211.523 59.0754 211.523 58.2487C211.523 57.422 211.23 56.7687 210.643 56.2887C210.07 55.7954 209.297 55.5487 208.323 55.5487C207.697 55.5487 207.137 55.6687 206.643 55.9087C206.163 56.1487 205.783 56.4754 205.503 56.8887C205.237 57.302 205.103 57.762 205.103 58.2687C205.103 58.762 205.23 59.2154 205.483 59.6287C205.75 60.0287 206.13 60.3554 206.623 60.6087C207.13 60.8487 207.73 60.9687 208.423 60.9687ZM218.967 54.0087C220.967 54.0087 222.434 54.3887 223.367 55.1487C224.314 55.8954 224.787 56.922 224.787 58.2287C224.787 59.0554 224.587 59.802 224.187 60.4687C223.8 61.122 223.207 61.642 222.407 62.0287C221.62 62.402 220.647 62.5887 219.487 62.5887C218.5 62.5887 217.547 62.442 216.627 62.1487C215.707 61.842 214.947 61.422 214.347 60.8887L215.267 59.3087C215.747 59.762 216.36 60.1287 217.107 60.4087C217.854 60.6754 218.64 60.8087 219.467 60.8087C220.52 60.8087 221.334 60.5887 221.907 60.1487C222.494 59.6954 222.787 59.082 222.787 58.3087C222.787 57.4687 222.467 56.8354 221.827 56.4087C221.187 55.9687 220.094 55.7487 218.547 55.7487H215.367L216.107 48.4287H224.007V50.1687H217.787L217.407 54.0087H218.967ZM238.631 58.9887H235.971V62.4287H234.031V58.9887H226.251V57.5887L233.411 48.4287H235.571L228.711 57.2687H234.091V54.2287H235.971V57.2687H238.631V58.9887ZM244.956 54.3087C246.329 54.442 247.376 54.8687 248.096 55.5887C248.816 56.2954 249.176 57.202 249.176 58.3087C249.176 59.1087 248.976 59.8354 248.576 60.4887C248.176 61.1287 247.576 61.642 246.776 62.0287C245.989 62.402 245.023 62.5887 243.876 62.5887C242.876 62.5887 241.916 62.442 240.996 62.1487C240.076 61.842 239.323 61.422 238.736 60.8887L239.656 59.3087C240.136 59.762 240.749 60.1287 241.496 60.4087C242.243 60.6754 243.036 60.8087 243.876 60.8087C244.916 60.8087 245.723 60.5887 246.296 60.1487C246.883 59.7087 247.176 59.102 247.176 58.3287C247.176 57.5554 246.889 56.9554 246.316 56.5287C245.743 56.102 244.876 55.8887 243.716 55.8887H242.596V54.4887L246.116 50.1687H239.376V48.4287H248.616V49.7887L244.956 54.3087ZM260.784 60.6887V62.4287H250.724V61.0687L256.424 55.5687C257.117 54.902 257.584 54.3287 257.824 53.8487C258.064 53.3554 258.184 52.862 258.184 52.3687C258.184 51.6354 257.924 51.0687 257.404 50.6687C256.897 50.2554 256.164 50.0487 255.204 50.0487C253.657 50.0487 252.464 50.5554 251.624 51.5687L250.264 50.3887C250.81 49.722 251.524 49.202 252.404 48.8287C253.297 48.4554 254.29 48.2687 255.384 48.2687C256.85 48.2687 258.017 48.622 258.884 49.3287C259.75 50.022 260.184 50.9687 260.184 52.1687C260.184 52.9154 260.024 53.622 259.704 54.2887C259.384 54.9554 258.777 55.7154 257.884 56.5687L253.604 60.6887H260.784ZM266.768 48.4287V62.4287H264.788V50.1687H261.628V48.4287H266.768ZM284.541 56.2287H280.901V59.8087H279.221V56.2287H275.581V54.6487H279.221V51.0487H280.901V54.6487H284.541V56.2287ZM296.847 48.4287V49.7887L291.187 62.4287H289.067L294.607 50.1687H288.207V52.6687H286.287V48.4287H296.847ZM303.14 48.2687C305.02 48.2687 306.467 48.8754 307.48 50.0887C308.507 51.302 309.02 53.022 309.02 55.2487C309.02 56.8087 308.74 58.142 308.18 59.2487C307.633 60.342 306.86 61.1754 305.86 61.7487C304.873 62.3087 303.72 62.5887 302.4 62.5887C301.72 62.5887 301.08 62.522 300.48 62.3887C299.88 62.242 299.36 62.0354 298.92 61.7687L299.68 60.2087C300.36 60.6487 301.26 60.8687 302.38 60.8687C303.833 60.8687 304.967 60.422 305.78 59.5287C306.607 58.622 307.02 57.3087 307.02 55.5887V55.0887C306.62 55.6887 306.067 56.1487 305.36 56.4687C304.653 56.7754 303.86 56.9287 302.98 56.9287C302.06 56.9287 301.233 56.7554 300.5 56.4087C299.78 56.062 299.213 55.5687 298.8 54.9287C298.4 54.2754 298.2 53.5287 298.2 52.6887C298.2 51.8087 298.413 51.0354 298.84 50.3687C299.28 49.702 299.873 49.1887 300.62 48.8287C301.367 48.4554 302.207 48.2687 303.14 48.2687ZM303.32 55.3087C303.947 55.3087 304.507 55.1887 305 54.9487C305.493 54.7087 305.873 54.382 306.14 53.9687C306.42 53.5554 306.56 53.0954 306.56 52.5887C306.56 52.0954 306.427 51.6487 306.16 51.2487C305.907 50.8354 305.527 50.5087 305.02 50.2687C304.527 50.0154 303.927 49.8887 303.22 49.8887C302.3 49.8887 301.553 50.1354 300.98 50.6287C300.42 51.122 300.14 51.782 300.14 52.6087C300.14 53.4354 300.427 54.0954 301 54.5887C301.573 55.0687 302.347 55.3087 303.32 55.3087ZM315.225 48.4287V62.4287H313.245V50.1687H310.085V48.4287H315.225ZM328.127 60.6887V62.4287H318.067V61.0687L323.767 55.5687C324.461 54.902 324.927 54.3287 325.167 53.8487C325.407 53.3554 325.527 52.862 325.527 52.3687C325.527 51.6354 325.267 51.0687 324.747 50.6687C324.241 50.2554 323.507 50.0487 322.547 50.0487C321.001 50.0487 319.807 50.5554 318.967 51.5687L317.607 50.3887C318.154 49.722 318.867 49.202 319.747 48.8287C320.641 48.4554 321.634 48.2687 322.727 48.2687C324.194 48.2687 325.361 48.622 326.227 49.3287C327.094 50.022 327.527 50.9687 327.527 52.1687C327.527 52.9154 327.367 53.622 327.047 54.2887C326.727 54.9554 326.121 55.7154 325.227 56.5687L320.947 60.6887H328.127ZM335.132 54.3087C336.505 54.442 337.552 54.8687 338.272 55.5887C338.992 56.2954 339.352 57.202 339.352 58.3087C339.352 59.1087 339.152 59.8354 338.752 60.4887C338.352 61.1287 337.752 61.642 336.952 62.0287C336.165 62.402 335.198 62.5887 334.052 62.5887C333.052 62.5887 332.092 62.442 331.172 62.1487C330.252 61.842 329.498 61.422 328.912 60.8887L329.832 59.3087C330.312 59.762 330.925 60.1287 331.672 60.4087C332.418 60.6754 333.212 60.8087 334.052 60.8087C335.092 60.8087 335.898 60.5887 336.472 60.1487C337.058 59.7087 337.352 59.102 337.352 58.3287C337.352 57.5554 337.065 56.9554 336.492 56.5287C335.918 56.102 335.052 55.8887 333.892 55.8887H332.772V54.4887L336.292 50.1687H329.552V48.4287H338.792V49.7887L335.132 54.3087ZM353.397 58.9887H350.737V62.4287H348.797V58.9887H341.017V57.5887L348.177 48.4287H350.337L343.477 57.2687H348.857V54.2287H350.737V57.2687H353.397V58.9887ZM358.537 54.0087C360.537 54.0087 362.004 54.3887 362.937 55.1487C363.884 55.8954 364.357 56.922 364.357 58.2287C364.357 59.0554 364.157 59.802 363.757 60.4687C363.371 61.122 362.777 61.642 361.977 62.0287C361.191 62.402 360.217 62.5887 359.057 62.5887C358.071 62.5887 357.117 62.442 356.197 62.1487C355.277 61.842 354.517 61.422 353.917 60.8887L354.837 59.3087C355.317 59.762 355.931 60.1287 356.677 60.4087C357.424 60.6754 358.211 60.8087 359.037 60.8087C360.091 60.8087 360.904 60.5887 361.477 60.1487C362.064 59.6954 362.357 59.082 362.357 58.3087C362.357 57.4687 362.037 56.8354 361.397 56.4087C360.757 55.9687 359.664 55.7487 358.117 55.7487H354.937L355.677 48.4287H363.577V50.1687H357.357L356.977 54.0087H358.537ZM372.062 53.9287C372.982 53.9287 373.802 54.102 374.522 54.4487C375.255 54.7954 375.828 55.2954 376.242 55.9487C376.655 56.5887 376.862 57.3287 376.862 58.1687C376.862 59.0487 376.642 59.822 376.202 60.4887C375.775 61.1554 375.182 61.6754 374.422 62.0487C373.675 62.4087 372.835 62.5887 371.902 62.5887C370.022 62.5887 368.568 61.982 367.542 60.7687C366.528 59.5554 366.022 57.8354 366.022 55.6087C366.022 54.0487 366.295 52.722 366.842 51.6287C367.402 50.522 368.175 49.6887 369.162 49.1287C370.162 48.5554 371.322 48.2687 372.642 48.2687C373.322 48.2687 373.962 48.342 374.562 48.4887C375.162 48.622 375.682 48.822 376.122 49.0887L375.362 50.6487C374.695 50.2087 373.802 49.9887 372.682 49.9887C371.228 49.9887 370.088 50.442 369.262 51.3487C368.435 52.242 368.022 53.5487 368.022 55.2687C368.022 55.482 368.028 55.6487 368.042 55.7687C368.442 55.1687 368.988 54.7154 369.682 54.4087C370.388 54.0887 371.182 53.9287 372.062 53.9287ZM371.822 60.9687C372.742 60.9687 373.488 60.722 374.062 60.2287C374.635 59.7354 374.922 59.0754 374.922 58.2487C374.922 57.422 374.628 56.7687 374.042 56.2887C373.468 55.7954 372.695 55.5487 371.722 55.5487C371.095 55.5487 370.535 55.6687 370.042 55.9087C369.562 56.1487 369.182 56.4754 368.902 56.8887C368.635 57.302 368.502 57.762 368.502 58.2687C368.502 58.762 368.628 59.2154 368.882 59.6287C369.148 60.0287 369.528 60.3554 370.022 60.6087C370.528 60.8487 371.128 60.9687 371.822 60.9687ZM388.429 48.4287V49.7887L382.769 62.4287H380.649L386.189 50.1687H379.789V52.6687H377.869V48.4287H388.429ZM398.39 55.0887C399.19 55.3954 399.804 55.8354 400.23 56.4087C400.657 56.982 400.87 57.6687 400.87 58.4687C400.87 59.3087 400.644 60.042 400.19 60.6687C399.737 61.282 399.09 61.7554 398.25 62.0887C397.41 62.422 396.424 62.5887 395.29 62.5887C394.17 62.5887 393.19 62.422 392.35 62.0887C391.524 61.7554 390.884 61.282 390.43 60.6687C389.977 60.042 389.75 59.3087 389.75 58.4687C389.75 57.6687 389.957 56.982 390.37 56.4087C390.797 55.8354 391.41 55.3954 392.21 55.0887C391.57 54.782 391.084 54.3754 390.75 53.8687C390.417 53.362 390.25 52.762 390.25 52.0687C390.25 51.2954 390.457 50.622 390.87 50.0487C391.297 49.4754 391.89 49.0354 392.65 48.7287C393.41 48.422 394.29 48.2687 395.29 48.2687C396.304 48.2687 397.19 48.422 397.95 48.7287C398.724 49.0354 399.317 49.4754 399.73 50.0487C400.157 50.622 400.37 51.2954 400.37 52.0687C400.37 52.7487 400.197 53.3487 399.85 53.8687C399.517 54.3754 399.03 54.782 398.39 55.0887ZM395.29 49.8887C394.344 49.8887 393.597 50.0954 393.05 50.5087C392.504 50.9087 392.23 51.4554 392.23 52.1487C392.23 52.842 392.497 53.3887 393.03 53.7887C393.577 54.1887 394.33 54.3887 395.29 54.3887C396.264 54.3887 397.024 54.1887 397.57 53.7887C398.13 53.3887 398.41 52.842 398.41 52.1487C398.41 51.4554 398.124 50.9087 397.55 50.5087C396.99 50.0954 396.237 49.8887 395.29 49.8887ZM395.29 60.9687C396.397 60.9687 397.27 60.742 397.91 60.2887C398.55 59.822 398.87 59.1954 398.87 58.4087C398.87 57.6354 398.55 57.0287 397.91 56.5887C397.27 56.1354 396.397 55.9087 395.29 55.9087C394.184 55.9087 393.317 56.1354 392.69 56.5887C392.064 57.0287 391.75 57.6354 391.75 58.4087C391.75 59.1954 392.064 59.822 392.69 60.2887C393.317 60.742 394.184 60.9687 395.29 60.9687ZM407.241 48.2687C409.121 48.2687 410.568 48.8754 411.581 50.0887C412.608 51.302 413.121 53.022 413.121 55.2487C413.121 56.8087 412.841 58.142 412.281 59.2487C411.735 60.342 410.961 61.1754 409.961 61.7487C408.975 62.3087 407.821 62.5887 406.501 62.5887C405.821 62.5887 405.181 62.522 404.581 62.3887C403.981 62.242 403.461 62.0354 403.021 61.7687L403.781 60.2087C404.461 60.6487 405.361 60.8687 406.481 60.8687C407.935 60.8687 409.068 60.422 409.881 59.5287C410.708 58.622 411.121 57.3087 411.121 55.5887V55.0887C410.721 55.6887 410.168 56.1487 409.461 56.4687C408.755 56.7754 407.961 56.9287 407.081 56.9287C406.161 56.9287 405.335 56.7554 404.601 56.4087C403.881 56.062 403.315 55.5687 402.901 54.9287C402.501 54.2754 402.301 53.5287 402.301 52.6887C402.301 51.8087 402.515 51.0354 402.941 50.3687C403.381 49.702 403.975 49.1887 404.721 48.8287C405.468 48.4554 406.308 48.2687 407.241 48.2687ZM407.421 55.3087C408.048 55.3087 408.608 55.1887 409.101 54.9487C409.595 54.7087 409.975 54.382 410.241 53.9687C410.521 53.5554 410.661 53.0954 410.661 52.5887C410.661 52.0954 410.528 51.6487 410.261 51.2487C410.008 50.8354 409.628 50.5087 409.121 50.2687C408.628 50.0154 408.028 49.8887 407.321 49.8887C406.401 49.8887 405.655 50.1354 405.081 50.6287C404.521 51.122 404.241 51.782 404.241 52.6087C404.241 53.4354 404.528 54.0954 405.101 54.5887C405.675 55.0687 406.448 55.3087 407.421 55.3087Z" fill="white"/>
<path d="M462.553 50.9407C462.553 37.2095 451.421 26.0781 437.69 26.0781V26.0781V62.0635H462.553V50.9407Z" fill="#06AA5C" stroke="#06AA5C" stroke-width="1.01948"/>
<rect width="24.8626" height="8.73077" transform="matrix(-1 0 0 1 462.553 62.0635)" fill="#06AA5C" stroke="#06AA5C" stroke-width="1.01948"/>
<path fill-rule="evenodd" clip-rule="evenodd" d="M462.102 86.6561C462.398 85.1219 462.553 83.5374 462.553 81.9167V70.7939H437.69V106.779C443.711 106.779 449.232 104.639 453.534 101.078C457.826 103.937 464.707 106.655 473.021 105.143C470.731 104.162 461.899 98.2731 462.226 86.4961C462.186 86.5507 462.145 86.604 462.102 86.6561Z" fill="#06AA5C"/>
<path d="M462.102 86.6561L462.494 86.9808L461.601 86.5595L462.102 86.6561ZM462.553 70.7939V70.2842H463.062V70.7939H462.553ZM437.69 70.7939H437.18V70.2842H437.69V70.7939ZM437.69 106.779V107.289H437.18V106.779H437.69ZM453.534 101.078L453.209 100.685L453.501 100.444L453.816 100.654L453.534 101.078ZM473.021 105.143L473.222 104.675L474.779 105.342L473.112 105.645L473.021 105.143ZM462.226 86.4961L461.813 86.1963L462.781 84.866L462.735 86.5103L462.226 86.4961ZM463.062 81.9167C463.062 83.57 462.904 85.1868 462.602 86.7527L461.601 86.5595C461.891 85.0569 462.043 83.5048 462.043 81.9167H463.062ZM463.062 70.7939V81.9167H462.043V70.7939H463.062ZM437.69 70.2842H462.553V71.3037H437.69V70.2842ZM437.18 106.779V70.7939H438.2V106.779H437.18ZM453.859 101.471C449.469 105.105 443.834 107.289 437.69 107.289V106.27C443.588 106.27 448.995 104.174 453.209 100.685L453.859 101.471ZM473.112 105.645C464.636 107.186 457.622 104.414 453.251 101.502L453.816 100.654C458.029 103.46 464.778 106.124 472.93 104.642L473.112 105.645ZM462.735 86.5103C462.576 92.2581 464.648 96.5597 467.04 99.5495C469.442 102.552 472.155 104.217 473.222 104.675L472.82 105.612C471.597 105.087 468.749 103.318 466.244 100.186C463.729 97.0423 461.549 92.5112 461.716 86.482L462.735 86.5103ZM461.709 86.3314C461.745 86.2873 461.78 86.2423 461.813 86.1963L462.638 86.7959C462.592 86.8591 462.544 86.9207 462.494 86.9808L461.709 86.3314Z" fill="#06AA5C"/>
</svg>
