<svg width="475" height="108" viewBox="0 0 475 108" fill="none" xmlns="http://www.w3.org/2000/svg">
<path d="M40.9006 5.1545V18H39.5977V7.7236L34.5513 16.3668H33.909L28.8625 7.77865V18H27.5596V5.1545H28.679L34.2576 14.6785L39.7812 5.1545H40.9006ZM54.1329 13.5775H46.0586C46.132 14.5806 46.5174 15.3942 47.2147 16.0181C47.912 16.6298 48.7928 16.9357 49.8572 16.9357C50.4566 16.9357 51.0072 16.8317 51.5088 16.6237C52.0103 16.4035 52.4446 16.0854 52.8117 15.6695L53.5457 16.5136C53.1175 17.0274 52.5792 17.4189 51.9308 17.688C51.2947 17.9572 50.5912 18.0918 49.8205 18.0918C48.8295 18.0918 47.9487 17.8838 47.178 17.4678C46.4195 17.0396 45.8261 16.4524 45.398 15.7062C44.9698 14.9599 44.7557 14.1158 44.7557 13.1738C44.7557 12.2318 44.9575 11.3876 45.3613 10.6414C45.7772 9.8951 46.34 9.31399 47.0495 8.89804C47.7713 8.48209 48.5788 8.27412 49.4718 8.27412C50.3649 8.27412 51.1662 8.48209 51.8758 8.89804C52.5853 9.31399 53.142 9.8951 53.5457 10.6414C53.9494 11.3754 54.1513 12.2195 54.1513 13.1738L54.1329 13.5775ZM49.4718 9.39351C48.5421 9.39351 47.7591 9.69324 47.1229 10.2927C46.499 10.8799 46.1442 11.6507 46.0586 12.6049H52.9034C52.8178 11.6507 52.4569 10.8799 51.8207 10.2927C51.1968 9.69324 50.4138 9.39351 49.4718 9.39351Z" fill="#8A898E"/>
<path d="M1 50.9407C1 37.2095 12.1314 26.0781 25.8626 26.0781V26.0781V62.0635H1V50.9407Z" fill="#06AA5C" stroke="#06AA5C" stroke-width="1.01948"/>
<rect x="1" y="62.0635" width="24.8626" height="8.73077" fill="#06AA5C" stroke="#06AA5C" stroke-width="1.01948"/>
<path d="M1 81.9167C1 95.6479 12.1314 106.779 25.8626 106.779V106.779V70.794H1V81.9167Z" fill="#06AA5C" stroke="#06AA5C" stroke-width="1.01948"/>
<rect x="25.8625" y="26.0781" width="411.828" height="80.7014" fill="#06AA5C"/>
<rect x="25.8625" y="26.0781" width="411.828" height="80.7014" stroke="#06AA5C" stroke-width="1.01948"/>
<path d="M31.9025 45.5887H33.6426L27.0425 64.4287H25.3025L31.9025 45.5887ZM37.9861 62.5487C36.9061 62.5487 35.9395 62.3154 35.0861 61.8487C34.2461 61.382 33.5861 60.742 33.1061 59.9287C32.6261 59.102 32.3861 58.1687 32.3861 57.1287C32.3861 56.0887 32.6261 55.162 33.1061 54.3487C33.5861 53.522 34.2461 52.882 35.0861 52.4287C35.9395 51.962 36.9061 51.7287 37.9861 51.7287C38.9461 51.7287 39.7995 51.922 40.5461 52.3087C41.3061 52.6954 41.8928 53.2554 42.3061 53.9887L40.8461 54.9287C40.5128 54.422 40.0995 54.042 39.6061 53.7887C39.1128 53.5354 38.5661 53.4087 37.9661 53.4087C37.2728 53.4087 36.6461 53.562 36.0861 53.8687C35.5395 54.1754 35.1061 54.6154 34.7861 55.1887C34.4795 55.7487 34.3261 56.3954 34.3261 57.1287C34.3261 57.8754 34.4795 58.5354 34.7861 59.1087C35.1061 59.6687 35.5395 60.102 36.0861 60.4087C36.6461 60.7154 37.2728 60.8687 37.9661 60.8687C38.5661 60.8687 39.1128 60.742 39.6061 60.4887C40.0995 60.2354 40.5128 59.8554 40.8461 59.3487L42.3061 60.2687C41.8928 61.002 41.3061 61.5687 40.5461 61.9687C39.7995 62.3554 38.9461 62.5487 37.9861 62.5487ZM50.3152 51.7287C51.6619 51.7287 52.7285 52.122 53.5152 52.9087C54.3152 53.682 54.7152 54.822 54.7152 56.3287V62.4287H52.7952V56.5487C52.7952 55.522 52.5485 54.7487 52.0552 54.2287C51.5619 53.7087 50.8552 53.4487 49.9352 53.4487C48.8952 53.4487 48.0752 53.7554 47.4752 54.3687C46.8752 54.9687 46.5752 55.8354 46.5752 56.9687V62.4287H44.6552V47.5887H46.5752V53.3287C46.9752 52.822 47.4952 52.4287 48.1352 52.1487C48.7885 51.8687 49.5152 51.7287 50.3152 51.7287ZM67.9071 57.1887C67.9071 57.3354 67.8938 57.5287 67.8671 57.7687H59.2671C59.3871 58.702 59.7937 59.4554 60.4871 60.0287C61.1937 60.5887 62.0671 60.8687 63.1071 60.8687C64.3737 60.8687 65.3937 60.442 66.1671 59.5887L67.2271 60.8287C66.7471 61.3887 66.1471 61.8154 65.4271 62.1087C64.7204 62.402 63.9271 62.5487 63.0471 62.5487C61.9271 62.5487 60.9337 62.322 60.0671 61.8687C59.2004 61.402 58.5271 60.7554 58.0471 59.9287C57.5804 59.102 57.3471 58.1687 57.3471 57.1287C57.3471 56.102 57.5737 55.1754 58.0271 54.3487C58.4937 53.522 59.1271 52.882 59.9271 52.4287C60.7404 51.962 61.6537 51.7287 62.6671 51.7287C63.6804 51.7287 64.5804 51.962 65.3671 52.4287C66.1671 52.882 66.7871 53.522 67.2271 54.3487C67.6804 55.1754 67.9071 56.122 67.9071 57.1887ZM62.6671 53.3487C61.7471 53.3487 60.9737 53.6287 60.3471 54.1887C59.7337 54.7487 59.3737 55.482 59.2671 56.3887H66.0671C65.9604 55.4954 65.5937 54.7687 64.9671 54.2087C64.3537 53.6354 63.5871 53.3487 62.6671 53.3487ZM75.1932 62.5487C74.1132 62.5487 73.1465 62.3154 72.2932 61.8487C71.4532 61.382 70.7932 60.742 70.3132 59.9287C69.8332 59.102 69.5932 58.1687 69.5932 57.1287C69.5932 56.0887 69.8332 55.162 70.3132 54.3487C70.7932 53.522 71.4532 52.882 72.2932 52.4287C73.1465 51.962 74.1132 51.7287 75.1932 51.7287C76.1532 51.7287 77.0065 51.922 77.7532 52.3087C78.5132 52.6954 79.0998 53.2554 79.5132 53.9887L78.0532 54.9287C77.7198 54.422 77.3065 54.042 76.8132 53.7887C76.3198 53.5354 75.7732 53.4087 75.1732 53.4087C74.4798 53.4087 73.8532 53.562 73.2932 53.8687C72.7465 54.1754 72.3132 54.6154 71.9932 55.1887C71.6865 55.7487 71.5332 56.3954 71.5332 57.1287C71.5332 57.8754 71.6865 58.5354 71.9932 59.1087C72.3132 59.6687 72.7465 60.102 73.2932 60.4087C73.8532 60.7154 74.4798 60.8687 75.1732 60.8687C75.7732 60.8687 76.3198 60.742 76.8132 60.4887C77.3065 60.2354 77.7198 59.8554 78.0532 59.3487L79.5132 60.2687C79.0998 61.002 78.5132 61.5687 77.7532 61.9687C77.0065 62.3554 76.1532 62.5487 75.1932 62.5487ZM85.9822 57.4887L83.7822 59.5287V62.4287H81.8622V47.5887H83.7822V57.1087L89.5622 51.8287H91.8822L87.4222 56.2087L92.3222 62.4287H89.9622L85.9822 57.4887ZM108.038 56.2287H104.398V59.8087H102.718V56.2287H99.0776V54.6487H102.718V51.0487H104.398V54.6487H108.038V56.2287ZM120.343 48.4287V49.7887L114.683 62.4287H112.563L118.103 50.1687H111.703V52.6687H109.783V48.4287H120.343ZM126.636 48.2687C128.516 48.2687 129.963 48.8754 130.976 50.0887C132.003 51.302 132.516 53.022 132.516 55.2487C132.516 56.8087 132.236 58.142 131.676 59.2487C131.129 60.342 130.356 61.1754 129.356 61.7487C128.369 62.3087 127.216 62.5887 125.896 62.5887C125.216 62.5887 124.576 62.522 123.976 62.3887C123.376 62.242 122.856 62.0354 122.416 61.7687L123.176 60.2087C123.856 60.6487 124.756 60.8687 125.876 60.8687C127.329 60.8687 128.463 60.422 129.276 59.5287C130.103 58.622 130.516 57.3087 130.516 55.5887V55.0887C130.116 55.6887 129.563 56.1487 128.856 56.4687C128.149 56.7754 127.356 56.9287 126.476 56.9287C125.556 56.9287 124.729 56.7554 123.996 56.4087C123.276 56.062 122.709 55.5687 122.296 54.9287C121.896 54.2754 121.696 53.5287 121.696 52.6887C121.696 51.8087 121.909 51.0354 122.336 50.3687C122.776 49.702 123.369 49.1887 124.116 48.8287C124.863 48.4554 125.703 48.2687 126.636 48.2687ZM126.816 55.3087C127.443 55.3087 128.003 55.1887 128.496 54.9487C128.989 54.7087 129.369 54.382 129.636 53.9687C129.916 53.5554 130.056 53.0954 130.056 52.5887C130.056 52.0954 129.923 51.6487 129.656 51.2487C129.403 50.8354 129.023 50.5087 128.516 50.2687C128.023 50.0154 127.423 49.8887 126.716 49.8887C125.796 49.8887 125.049 50.1354 124.476 50.6287C123.916 51.122 123.636 51.782 123.636 52.6087C123.636 53.4354 123.923 54.0954 124.496 54.5887C125.069 55.0687 125.843 55.3087 126.816 55.3087ZM138.98 48.2687C140.86 48.2687 142.306 48.8754 143.32 50.0887C144.346 51.302 144.86 53.022 144.86 55.2487C144.86 56.8087 144.58 58.142 144.02 59.2487C143.473 60.342 142.7 61.1754 141.7 61.7487C140.713 62.3087 139.56 62.5887 138.24 62.5887C137.56 62.5887 136.92 62.522 136.32 62.3887C135.72 62.242 135.2 62.0354 134.76 61.7687L135.52 60.2087C136.2 60.6487 137.1 60.8687 138.22 60.8687C139.673 60.8687 140.806 60.422 141.62 59.5287C142.446 58.622 142.86 57.3087 142.86 55.5887V55.0887C142.46 55.6887 141.906 56.1487 141.2 56.4687C140.493 56.7754 139.7 56.9287 138.82 56.9287C137.9 56.9287 137.073 56.7554 136.34 56.4087C135.62 56.062 135.053 55.5687 134.64 54.9287C134.24 54.2754 134.04 53.5287 134.04 52.6887C134.04 51.8087 134.253 51.0354 134.68 50.3687C135.12 49.702 135.713 49.1887 136.46 48.8287C137.206 48.4554 138.046 48.2687 138.98 48.2687ZM139.16 55.3087C139.786 55.3087 140.346 55.1887 140.84 54.9487C141.333 54.7087 141.713 54.382 141.98 53.9687C142.26 53.5554 142.4 53.0954 142.4 52.5887C142.4 52.0954 142.266 51.6487 142 51.2487C141.746 50.8354 141.366 50.5087 140.86 50.2687C140.366 50.0154 139.766 49.8887 139.06 49.8887C138.14 49.8887 137.393 50.1354 136.82 50.6287C136.26 51.122 135.98 51.782 135.98 52.6087C135.98 53.4354 136.266 54.0954 136.84 54.5887C137.413 55.0687 138.186 55.3087 139.16 55.3087ZM155.343 55.0887C156.143 55.3954 156.757 55.8354 157.183 56.4087C157.61 56.982 157.823 57.6687 157.823 58.4687C157.823 59.3087 157.597 60.042 157.143 60.6687C156.69 61.282 156.043 61.7554 155.203 62.0887C154.363 62.422 153.377 62.5887 152.243 62.5887C151.123 62.5887 150.143 62.422 149.303 62.0887C148.477 61.7554 147.837 61.282 147.383 60.6687C146.93 60.042 146.703 59.3087 146.703 58.4687C146.703 57.6687 146.91 56.982 147.323 56.4087C147.75 55.8354 148.363 55.3954 149.163 55.0887C148.523 54.782 148.037 54.3754 147.703 53.8687C147.37 53.362 147.203 52.762 147.203 52.0687C147.203 51.2954 147.41 50.622 147.823 50.0487C148.25 49.4754 148.843 49.0354 149.603 48.7287C150.363 48.422 151.243 48.2687 152.243 48.2687C153.257 48.2687 154.143 48.422 154.903 48.7287C155.677 49.0354 156.27 49.4754 156.683 50.0487C157.11 50.622 157.323 51.2954 157.323 52.0687C157.323 52.7487 157.15 53.3487 156.803 53.8687C156.47 54.3754 155.983 54.782 155.343 55.0887ZM152.243 49.8887C151.297 49.8887 150.55 50.0954 150.003 50.5087C149.457 50.9087 149.183 51.4554 149.183 52.1487C149.183 52.842 149.45 53.3887 149.983 53.7887C150.53 54.1887 151.283 54.3887 152.243 54.3887C153.217 54.3887 153.977 54.1887 154.523 53.7887C155.083 53.3887 155.363 52.842 155.363 52.1487C155.363 51.4554 155.077 50.9087 154.503 50.5087C153.943 50.0954 153.19 49.8887 152.243 49.8887ZM152.243 60.9687C153.35 60.9687 154.223 60.742 154.863 60.2887C155.503 59.822 155.823 59.1954 155.823 58.4087C155.823 57.6354 155.503 57.0287 154.863 56.5887C154.223 56.1354 153.35 55.9087 152.243 55.9087C151.137 55.9087 150.27 56.1354 149.643 56.5887C149.017 57.0287 148.703 57.6354 148.703 58.4087C148.703 59.1954 149.017 59.822 149.643 60.2887C150.27 60.742 151.137 60.9687 152.243 60.9687ZM169.855 48.4287V49.7887L164.195 62.4287H162.075L167.615 50.1687H161.215V52.6687H159.295V48.4287H169.855ZM177.257 53.9287C178.177 53.9287 178.997 54.102 179.717 54.4487C180.45 54.7954 181.024 55.2954 181.437 55.9487C181.85 56.5887 182.057 57.3287 182.057 58.1687C182.057 59.0487 181.837 59.822 181.397 60.4887C180.97 61.1554 180.377 61.6754 179.617 62.0487C178.87 62.4087 178.03 62.5887 177.097 62.5887C175.217 62.5887 173.764 61.982 172.737 60.7687C171.724 59.5554 171.217 57.8354 171.217 55.6087C171.217 54.0487 171.49 52.722 172.037 51.6287C172.597 50.522 173.37 49.6887 174.357 49.1287C175.357 48.5554 176.517 48.2687 177.837 48.2687C178.517 48.2687 179.157 48.342 179.757 48.4887C180.357 48.622 180.877 48.822 181.317 49.0887L180.557 50.6487C179.89 50.2087 178.997 49.9887 177.877 49.9887C176.424 49.9887 175.284 50.442 174.457 51.3487C173.63 52.242 173.217 53.5487 173.217 55.2687C173.217 55.482 173.224 55.6487 173.237 55.7687C173.637 55.1687 174.184 54.7154 174.877 54.4087C175.584 54.0887 176.377 53.9287 177.257 53.9287ZM177.017 60.9687C177.937 60.9687 178.684 60.722 179.257 60.2287C179.83 59.7354 180.117 59.0754 180.117 58.2487C180.117 57.422 179.824 56.7687 179.237 56.2887C178.664 55.7954 177.89 55.5487 176.917 55.5487C176.29 55.5487 175.73 55.6687 175.237 55.9087C174.757 56.1487 174.377 56.4754 174.097 56.8887C173.83 57.302 173.697 57.762 173.697 58.2687C173.697 58.762 173.824 59.2154 174.077 59.6287C174.344 60.0287 174.724 60.3554 175.217 60.6087C175.724 60.8487 176.324 60.9687 177.017 60.9687ZM187.561 54.0087C189.561 54.0087 191.028 54.3887 191.961 55.1487C192.908 55.8954 193.381 56.922 193.381 58.2287C193.381 59.0554 193.181 59.802 192.781 60.4687C192.394 61.122 191.801 61.642 191.001 62.0287C190.214 62.402 189.241 62.5887 188.081 62.5887C187.094 62.5887 186.141 62.442 185.221 62.1487C184.301 61.842 183.541 61.422 182.941 60.8887L183.861 59.3087C184.341 59.762 184.954 60.1287 185.701 60.4087C186.448 60.6754 187.234 60.8087 188.061 60.8087C189.114 60.8087 189.928 60.5887 190.501 60.1487C191.088 59.6954 191.381 59.082 191.381 58.3087C191.381 57.4687 191.061 56.8354 190.421 56.4087C189.781 55.9687 188.688 55.7487 187.141 55.7487H183.961L184.701 48.4287H192.601V50.1687H186.381L186.001 54.0087H187.561ZM207.225 58.9887H204.565V62.4287H202.625V58.9887H194.845V57.5887L202.005 48.4287H204.165L197.305 57.2687H202.685V54.2287H204.565V57.2687H207.225V58.9887ZM213.55 54.3087C214.923 54.442 215.97 54.8687 216.69 55.5887C217.41 56.2954 217.77 57.202 217.77 58.3087C217.77 59.1087 217.57 59.8354 217.17 60.4887C216.77 61.1287 216.17 61.642 215.37 62.0287C214.583 62.402 213.616 62.5887 212.47 62.5887C211.47 62.5887 210.51 62.442 209.59 62.1487C208.67 61.842 207.916 61.422 207.33 60.8887L208.25 59.3087C208.73 59.762 209.343 60.1287 210.09 60.4087C210.836 60.6754 211.63 60.8087 212.47 60.8087C213.51 60.8087 214.316 60.5887 214.89 60.1487C215.476 59.7087 215.77 59.102 215.77 58.3287C215.77 57.5554 215.483 56.9554 214.91 56.5287C214.336 56.102 213.47 55.8887 212.31 55.8887H211.19V54.4887L214.71 50.1687H207.97V48.4287H217.21V49.7887L213.55 54.3087ZM229.377 60.6887V62.4287H219.317V61.0687L225.017 55.5687C225.711 54.902 226.177 54.3287 226.417 53.8487C226.657 53.3554 226.777 52.862 226.777 52.3687C226.777 51.6354 226.517 51.0687 225.997 50.6687C225.491 50.2554 224.757 50.0487 223.797 50.0487C222.251 50.0487 221.057 50.5554 220.217 51.5687L218.857 50.3887C219.404 49.722 220.117 49.202 220.997 48.8287C221.891 48.4554 222.884 48.2687 223.977 48.2687C225.444 48.2687 226.611 48.622 227.477 49.3287C228.344 50.022 228.777 50.9687 228.777 52.1687C228.777 52.9154 228.617 53.622 228.297 54.2887C227.977 54.9554 227.371 55.7154 226.477 56.5687L222.197 60.6887H229.377ZM235.362 48.4287V62.4287H233.382V50.1687H230.222V48.4287H235.362ZM253.135 56.2287H249.495V59.8087H247.815V56.2287H244.175V54.6487H247.815V51.0487H249.495V54.6487H253.135V56.2287ZM265.441 48.4287V49.7887L259.781 62.4287H257.661L263.201 50.1687H256.801V52.6687H254.881V48.4287H265.441ZM271.734 48.2687C273.614 48.2687 275.06 48.8754 276.074 50.0887C277.1 51.302 277.614 53.022 277.614 55.2487C277.614 56.8087 277.334 58.142 276.774 59.2487C276.227 60.342 275.454 61.1754 274.454 61.7487C273.467 62.3087 272.314 62.5887 270.994 62.5887C270.314 62.5887 269.674 62.522 269.074 62.3887C268.474 62.242 267.954 62.0354 267.514 61.7687L268.274 60.2087C268.954 60.6487 269.854 60.8687 270.974 60.8687C272.427 60.8687 273.56 60.422 274.374 59.5287C275.2 58.622 275.614 57.3087 275.614 55.5887V55.0887C275.214 55.6887 274.66 56.1487 273.954 56.4687C273.247 56.7754 272.454 56.9287 271.574 56.9287C270.654 56.9287 269.827 56.7554 269.094 56.4087C268.374 56.062 267.807 55.5687 267.394 54.9287C266.994 54.2754 266.794 53.5287 266.794 52.6887C266.794 51.8087 267.007 51.0354 267.434 50.3687C267.874 49.702 268.467 49.1887 269.214 48.8287C269.96 48.4554 270.8 48.2687 271.734 48.2687ZM271.914 55.3087C272.54 55.3087 273.1 55.1887 273.594 54.9487C274.087 54.7087 274.467 54.382 274.734 53.9687C275.014 53.5554 275.154 53.0954 275.154 52.5887C275.154 52.0954 275.02 51.6487 274.754 51.2487C274.5 50.8354 274.12 50.5087 273.614 50.2687C273.12 50.0154 272.52 49.8887 271.814 49.8887C270.894 49.8887 270.147 50.1354 269.574 50.6287C269.014 51.122 268.734 51.782 268.734 52.6087C268.734 53.4354 269.02 54.0954 269.594 54.5887C270.167 55.0687 270.94 55.3087 271.914 55.3087ZM283.819 48.4287V62.4287H281.839V50.1687H278.679V48.4287H283.819ZM296.721 60.6887V62.4287H286.661V61.0687L292.361 55.5687C293.055 54.902 293.521 54.3287 293.761 53.8487C294.001 53.3554 294.121 52.862 294.121 52.3687C294.121 51.6354 293.861 51.0687 293.341 50.6687C292.835 50.2554 292.101 50.0487 291.141 50.0487C289.595 50.0487 288.401 50.5554 287.561 51.5687L286.201 50.3887C286.748 49.722 287.461 49.202 288.341 48.8287C289.235 48.4554 290.228 48.2687 291.321 48.2687C292.788 48.2687 293.955 48.622 294.821 49.3287C295.688 50.022 296.121 50.9687 296.121 52.1687C296.121 52.9154 295.961 53.622 295.641 54.2887C295.321 54.9554 294.715 55.7154 293.821 56.5687L289.541 60.6887H296.721ZM303.726 54.3087C305.099 54.442 306.146 54.8687 306.866 55.5887C307.586 56.2954 307.946 57.202 307.946 58.3087C307.946 59.1087 307.746 59.8354 307.346 60.4887C306.946 61.1287 306.346 61.642 305.546 62.0287C304.759 62.402 303.792 62.5887 302.646 62.5887C301.646 62.5887 300.686 62.442 299.766 62.1487C298.846 61.842 298.092 61.422 297.506 60.8887L298.426 59.3087C298.906 59.762 299.519 60.1287 300.266 60.4087C301.012 60.6754 301.806 60.8087 302.646 60.8087C303.686 60.8087 304.492 60.5887 305.066 60.1487C305.652 59.7087 305.946 59.102 305.946 58.3287C305.946 57.5554 305.659 56.9554 305.086 56.5287C304.512 56.102 303.646 55.8887 302.486 55.8887H301.366V54.4887L304.886 50.1687H298.146V48.4287H307.386V49.7887L303.726 54.3087ZM321.991 58.9887H319.331V62.4287H317.391V58.9887H309.611V57.5887L316.771 48.4287H318.931L312.071 57.2687H317.451V54.2287H319.331V57.2687H321.991V58.9887ZM327.131 54.0087C329.131 54.0087 330.598 54.3887 331.531 55.1487C332.478 55.8954 332.951 56.922 332.951 58.2287C332.951 59.0554 332.751 59.802 332.351 60.4687C331.965 61.122 331.371 61.642 330.571 62.0287C329.785 62.402 328.811 62.5887 327.651 62.5887C326.665 62.5887 325.711 62.442 324.791 62.1487C323.871 61.842 323.111 61.422 322.511 60.8887L323.431 59.3087C323.911 59.762 324.525 60.1287 325.271 60.4087C326.018 60.6754 326.805 60.8087 327.631 60.8087C328.685 60.8087 329.498 60.5887 330.071 60.1487C330.658 59.6954 330.951 59.082 330.951 58.3087C330.951 57.4687 330.631 56.8354 329.991 56.4087C329.351 55.9687 328.258 55.7487 326.711 55.7487H323.531L324.271 48.4287H332.171V50.1687H325.951L325.571 54.0087H327.131ZM340.656 53.9287C341.576 53.9287 342.396 54.102 343.116 54.4487C343.849 54.7954 344.422 55.2954 344.836 55.9487C345.249 56.5887 345.456 57.3287 345.456 58.1687C345.456 59.0487 345.236 59.822 344.796 60.4887C344.369 61.1554 343.776 61.6754 343.016 62.0487C342.269 62.4087 341.429 62.5887 340.496 62.5887C338.616 62.5887 337.162 61.982 336.136 60.7687C335.122 59.5554 334.616 57.8354 334.616 55.6087C334.616 54.0487 334.889 52.722 335.436 51.6287C335.996 50.522 336.769 49.6887 337.756 49.1287C338.756 48.5554 339.916 48.2687 341.236 48.2687C341.916 48.2687 342.556 48.342 343.156 48.4887C343.756 48.622 344.276 48.822 344.716 49.0887L343.956 50.6487C343.289 50.2087 342.396 49.9887 341.276 49.9887C339.822 49.9887 338.682 50.442 337.856 51.3487C337.029 52.242 336.616 53.5487 336.616 55.2687C336.616 55.482 336.622 55.6487 336.636 55.7687C337.036 55.1687 337.582 54.7154 338.276 54.4087C338.982 54.0887 339.776 53.9287 340.656 53.9287ZM340.416 60.9687C341.336 60.9687 342.082 60.722 342.656 60.2287C343.229 59.7354 343.516 59.0754 343.516 58.2487C343.516 57.422 343.222 56.7687 342.636 56.2887C342.062 55.7954 341.289 55.5487 340.316 55.5487C339.689 55.5487 339.129 55.6687 338.636 55.9087C338.156 56.1487 337.776 56.4754 337.496 56.8887C337.229 57.302 337.096 57.762 337.096 58.2687C337.096 58.762 337.222 59.2154 337.476 59.6287C337.742 60.0287 338.122 60.3554 338.616 60.6087C339.122 60.8487 339.722 60.9687 340.416 60.9687ZM357.023 48.4287V49.7887L351.363 62.4287H349.243L354.783 50.1687H348.383V52.6687H346.463V48.4287H357.023ZM366.984 55.0887C367.784 55.3954 368.397 55.8354 368.824 56.4087C369.251 56.982 369.464 57.6687 369.464 58.4687C369.464 59.3087 369.237 60.042 368.784 60.6687C368.331 61.282 367.684 61.7554 366.844 62.0887C366.004 62.422 365.017 62.5887 363.884 62.5887C362.764 62.5887 361.784 62.422 360.944 62.0887C360.117 61.7554 359.477 61.282 359.024 60.6687C358.571 60.042 358.344 59.3087 358.344 58.4687C358.344 57.6687 358.551 56.982 358.964 56.4087C359.391 55.8354 360.004 55.3954 360.804 55.0887C360.164 54.782 359.677 54.3754 359.344 53.8687C359.011 53.362 358.844 52.762 358.844 52.0687C358.844 51.2954 359.051 50.622 359.464 50.0487C359.891 49.4754 360.484 49.0354 361.244 48.7287C362.004 48.422 362.884 48.2687 363.884 48.2687C364.897 48.2687 365.784 48.422 366.544 48.7287C367.317 49.0354 367.911 49.4754 368.324 50.0487C368.751 50.622 368.964 51.2954 368.964 52.0687C368.964 52.7487 368.791 53.3487 368.444 53.8687C368.111 54.3754 367.624 54.782 366.984 55.0887ZM363.884 49.8887C362.937 49.8887 362.191 50.0954 361.644 50.5087C361.097 50.9087 360.824 51.4554 360.824 52.1487C360.824 52.842 361.091 53.3887 361.624 53.7887C362.171 54.1887 362.924 54.3887 363.884 54.3887C364.857 54.3887 365.617 54.1887 366.164 53.7887C366.724 53.3887 367.004 52.842 367.004 52.1487C367.004 51.4554 366.717 50.9087 366.144 50.5087C365.584 50.0954 364.831 49.8887 363.884 49.8887ZM363.884 60.9687C364.991 60.9687 365.864 60.742 366.504 60.2887C367.144 59.822 367.464 59.1954 367.464 58.4087C367.464 57.6354 367.144 57.0287 366.504 56.5887C365.864 56.1354 364.991 55.9087 363.884 55.9087C362.777 55.9087 361.911 56.1354 361.284 56.5887C360.657 57.0287 360.344 57.6354 360.344 58.4087C360.344 59.1954 360.657 59.822 361.284 60.2887C361.911 60.742 362.777 60.9687 363.884 60.9687ZM375.835 48.2687C377.715 48.2687 379.162 48.8754 380.175 50.0887C381.202 51.302 381.715 53.022 381.715 55.2487C381.715 56.8087 381.435 58.142 380.875 59.2487C380.329 60.342 379.555 61.1754 378.555 61.7487C377.569 62.3087 376.415 62.5887 375.095 62.5887C374.415 62.5887 373.775 62.522 373.175 62.3887C372.575 62.242 372.055 62.0354 371.615 61.7687L372.375 60.2087C373.055 60.6487 373.955 60.8687 375.075 60.8687C376.529 60.8687 377.662 60.422 378.475 59.5287C379.302 58.622 379.715 57.3087 379.715 55.5887V55.0887C379.315 55.6887 378.762 56.1487 378.055 56.4687C377.349 56.7754 376.555 56.9287 375.675 56.9287C374.755 56.9287 373.929 56.7554 373.195 56.4087C372.475 56.062 371.909 55.5687 371.495 54.9287C371.095 54.2754 370.895 53.5287 370.895 52.6887C370.895 51.8087 371.109 51.0354 371.535 50.3687C371.975 49.702 372.569 49.1887 373.315 48.8287C374.062 48.4554 374.902 48.2687 375.835 48.2687ZM376.015 55.3087C376.642 55.3087 377.202 55.1887 377.695 54.9487C378.189 54.7087 378.569 54.382 378.835 53.9687C379.115 53.5554 379.255 53.0954 379.255 52.5887C379.255 52.0954 379.122 51.6487 378.855 51.2487C378.602 50.8354 378.222 50.5087 377.715 50.2687C377.222 50.0154 376.622 49.8887 375.915 49.8887C374.995 49.8887 374.249 50.1354 373.675 50.6287C373.115 51.122 372.835 51.782 372.835 52.6087C372.835 53.4354 373.122 54.0954 373.695 54.5887C374.269 55.0687 375.042 55.3087 376.015 55.3087Z" fill="white"/>
<path d="M462.553 50.9407C462.553 37.2095 451.421 26.0781 437.69 26.0781V26.0781V62.0635H462.553V50.9407Z" fill="#06AA5C" stroke="#06AA5C" stroke-width="1.01948"/>
<rect width="24.8626" height="8.73077" transform="matrix(-1 0 0 1 462.553 62.0635)" fill="#06AA5C" stroke="#06AA5C" stroke-width="1.01948"/>
<path fill-rule="evenodd" clip-rule="evenodd" d="M462.102 86.6561C462.398 85.1219 462.553 83.5374 462.553 81.9167V70.7939H437.69V106.779C443.711 106.779 449.232 104.639 453.534 101.078C457.826 103.937 464.707 106.655 473.021 105.143C470.731 104.162 461.899 98.2731 462.226 86.4961C462.186 86.5507 462.145 86.604 462.102 86.6561Z" fill="#06AA5C"/>
<path d="M462.102 86.6561L462.494 86.9808L461.601 86.5595L462.102 86.6561ZM462.553 70.7939V70.2842H463.062V70.7939H462.553ZM437.69 70.7939H437.18V70.2842H437.69V70.7939ZM437.69 106.779V107.289H437.18V106.779H437.69ZM453.534 101.078L453.209 100.685L453.501 100.444L453.816 100.654L453.534 101.078ZM473.021 105.143L473.222 104.675L474.779 105.342L473.112 105.645L473.021 105.143ZM462.226 86.4961L461.813 86.1963L462.781 84.866L462.735 86.5103L462.226 86.4961ZM463.062 81.9167C463.062 83.57 462.904 85.1868 462.602 86.7527L461.601 86.5595C461.891 85.0569 462.043 83.5048 462.043 81.9167H463.062ZM463.062 70.7939V81.9167H462.043V70.7939H463.062ZM437.69 70.2842H462.553V71.3037H437.69V70.2842ZM437.18 106.779V70.7939H438.2V106.779H437.18ZM453.859 101.471C449.469 105.105 443.834 107.289 437.69 107.289V106.27C443.588 106.27 448.995 104.174 453.209 100.685L453.859 101.471ZM473.112 105.645C464.636 107.186 457.622 104.414 453.251 101.502L453.816 100.654C458.029 103.46 464.778 106.124 472.93 104.642L473.112 105.645ZM462.735 86.5103C462.576 92.2581 464.648 96.5597 467.04 99.5495C469.442 102.552 472.155 104.217 473.222 104.675L472.82 105.612C471.597 105.087 468.749 103.318 466.244 100.186C463.729 97.0423 461.549 92.5112 461.716 86.482L462.735 86.5103ZM461.709 86.3314C461.745 86.2873 461.78 86.2423 461.813 86.1963L462.638 86.7959C462.592 86.8591 462.544 86.9207 462.494 86.9808L461.709 86.3314Z" fill="#06AA5C"/>
</svg>
