<svg width="422" height="422" viewBox="0 0 422 422" fill="none" xmlns="http://www.w3.org/2000/svg">
<rect width="422" height="422" rx="73.36" fill="#070707"/>
<path d="M276.518 56.6643C276.518 56.6643 281.425 45 288.92 45C296.295 45 300.131 48.4555 302.689 50.8397C305.246 53.2239 348.041 88.911 348.041 88.911C348.041 88.911 360.486 99.9416 359.535 120.69C358.732 141.438 354.732 170.969 333.974 212.103C313.365 253.147 261.783 315.86 229.189 337.906C229.189 337.906 198.989 361.416 170.886 370.968C162.722 373.578 146.396 376.973 142.589 376.973C138.723 376.973 131.898 376.973 124.062 371.164C116.092 365.294 71.3792 328.807 71.3792 328.807C71.3792 328.807 60.4353 318.772 73.1487 307.108C85.9216 295.444 124.701 269.505 132.998 262.684C141.31 255.758 153.146 258.806 158.262 263.499C163.362 268.222 172.477 275.993 173.592 276.974C175.257 278.272 179.822 282.482 184.937 280.384C191.45 277.774 218.156 263.061 242.913 228.687C267.522 194.343 270.229 183.116 273.901 170.984C274.524 169.19 274.533 167.236 273.926 165.437C273.319 163.638 272.131 162.099 270.556 161.07C266.868 158.475 253.292 146.991 253.292 146.991C253.292 146.991 244.504 138.194 248.177 127.827C251.85 117.461 276.518 56.6643 276.518 56.6643Z" fill="url(#paint0_linear_2032_153)"/>
<defs>
<linearGradient id="paint0_linear_2032_153" x1="275.024" y1="-100.238" x2="601.34" y2="146.047" gradientUnits="userSpaceOnUse">
<stop stop-color="#00E677"/>
<stop offset="1" stop-color="#1B832B"/>
</linearGradient>
</defs>
</svg>
